<?xml version="1.0" encoding="UTF-8" standalone="no"?>
<!-- Created with Inkscape (http://www.inkscape.org/) -->

<svg
   xmlns:dc="http://purl.org/dc/elements/1.1/"
   xmlns:cc="http://creativecommons.org/ns#"
   xmlns:rdf="http://www.w3.org/1999/02/22-rdf-syntax-ns#"
   xmlns:svg="http://www.w3.org/2000/svg"
   xmlns="http://www.w3.org/2000/svg"
   xmlns:sodipodi="http://sodipodi.sourceforge.net/DTD/sodipodi-0.dtd"
   xmlns:inkscape="http://www.inkscape.org/namespaces/inkscape"
   width="128"
   height="44.799999"
   id="svg2759"
   sodipodi:version="0.32"
   inkscape:version="0.92.1 r15371"
   version="1.0"
   sodipodi:docname="by-sa.svg"
   inkscape:output_extension="org.inkscape.output.svg.inkscape">
  <defs
     id="defs2761" />
  <sodipodi:namedview
     id="base"
     pagecolor="#ffffff"
     bordercolor="#8b8b8b"
     borderopacity="1"
     gridtolerance="10000"
     guidetolerance="10"
     objecttolerance="10"
     inkscape:pageopacity="0.0"
     inkscape:pageshadow="2"
     inkscape:zoom="1"
     inkscape:cx="-62"
     inkscape:cy="89.569904"
     inkscape:document-units="px"
     inkscape:current-layer="layer1"
     width="120px"
     height="42px"
     inkscape:showpageshadow="false"
     inkscape:window-width="1198"
     inkscape:window-height="624"
     inkscape:window-x="488"
     inkscape:window-y="401"
     showgrid="false"
     inkscape:window-maximized="0" />
  <metadata
     id="metadata2764">
    <rdf:RDF>
      <cc:Work
         rdf:about="">
        <dc:format>image/svg+xml</dc:format>
        <dc:type
           rdf:resource="http://purl.org/dc/dcmitype/StillImage" />
      </cc:Work>
    </rdf:RDF>
  </metadata>
  <g
     inkscape:label="Layer 1"
     inkscape:groupmode="layer"
     id="layer1">
    <g
       transform="matrix(0.9937807,0,0,0.9936694,-189.54036,-79.398836)"
       id="g287"
       inkscape:export-filename="/mnt/hgfs/Bov/Documents/Work/2007/cc/identity/srr buttons/big/by-sa.png"
       inkscape:export-xdpi="300.23013"
       inkscape:export-ydpi="300.23013">
      <path
         id="path3817_2_"
         nodetypes="ccccccc"
         d="m 194.38434,80.416149 121.66823,0.216662 c 1.7,0 3.21875,-0.252608 3.21875,3.392192 l -0.14896,40.071347 H 191.31403 V 83.876043 c 0,-1.796875 0.17396,-3.459894 3.07031,-3.459894 z"
         style="fill:#aab2ab;stroke-width:1.06666672"
         inkscape:connector-curvature="0" />
      <g
         id="g5908_2_"
         transform="matrix(0.872921,0,0,0.872921,53.467051,152.76203)">
        <path
           id="path5906_2_"
           cx="296.35416"
           ry="22.939548"
           cy="264.3577"
           type="arc"
           rx="22.939548"
           d="m 199.69007,-59.391147 c 0.006,9.258923 -7.49638,16.769014 -16.75531,16.775552 -9.25889,0.0053 -16.77018,-7.496384 -16.77555,-16.755242 0,-0.0071 0,-0.01315 0,-0.02031 -0.005,-9.260096 7.49635,-16.770186 16.75528,-16.775584 9.26009,-0.006 16.77021,7.496416 16.77558,16.755275 0,0.006 0,0.01315 0,0.02031 z"
           style="fill:#ffffff;stroke-width:1.06666672"
           inkscape:connector-curvature="0" />
        <g
           id="g5706_2_"
           transform="translate(-308.92341,105.66965)">
          <path
             id="path5708_2_"
             d="m 505.47685,-178.71706 c 3.71777,3.71836 5.57695,8.27084 5.57695,13.65625 0,5.386 -1.82698,9.88958 -5.48089,13.51185 -3.87767,3.81504 -8.46058,5.72194 -13.74877,5.72194 -5.22429,0 -9.72786,-1.89078 -13.50944,-5.67419 -3.78223,-3.78219 -5.67301,-8.30185 -5.67301,-13.5596 0,-5.25716 1.89078,-9.80905 5.67301,-13.65625 3.68555,-3.71894 8.18907,-5.57753 13.50944,-5.57753 5.38484,0 9.93494,1.85859 13.65271,5.57753 z m -24.65918,2.50118 c -3.1432,3.1748 -4.71419,6.89375 -4.71419,11.15983 0,4.2649 1.5555,7.95221 4.66585,11.06204 3.11097,3.11094 6.81439,4.66642 11.11152,4.66642 4.2971,0 8.0322,-1.571 11.207,-4.71362 3.01429,-2.91822 4.52204,-6.58886 4.52204,-11.01484 0,-4.39258 -1.53223,-8.12045 -4.59486,-11.18373 -3.06202,-3.06204 -6.77321,-4.59362 -11.13418,-4.59362 -4.36092,0 -8.04947,1.53939 -11.06318,4.61752 z m 8.27146,9.28333 c -0.48034,-1.04708 -1.19928,-1.57038 -2.15813,-1.57038 -1.69509,0 -2.54232,1.14082 -2.54232,3.4224 0,2.28223 0.84723,3.42305 2.54232,3.42305 1.11934,0 1.91888,-0.55606 2.39857,-1.66946 l 2.34961,1.25123 c -1.11993,1.98984 -2.80007,2.98561 -5.04052,2.98561 -1.7279,0 -3.11214,-0.52981 -4.15153,-1.58887 -1.04115,-1.05963 -1.56026,-2.52024 -1.56026,-4.38183 0,-1.82995 0.53578,-3.28223 1.60798,-4.35801 1.0722,-1.07512 2.40752,-1.61334 4.00833,-1.61334 2.36813,0 4.06383,0.93321 5.08886,2.79772 z m 11.05423,0 c -0.48093,-1.04708 -1.18558,-1.57038 -2.11455,-1.57038 -1.72913,0 -2.59427,1.14082 -2.59427,3.4224 0,2.28223 0.86514,3.42305 2.59427,3.42305 1.1211,0 1.90632,-0.55606 2.35439,-1.66946 l 2.40214,1.25123 c -1.11813,1.98984 -2.79593,2.98561 -5.03219,2.98561 -1.72556,0 -3.1068,-0.52981 -4.14557,-1.58887 -1.03698,-1.05963 -1.55667,-2.52024 -1.55667,-4.38183 0,-1.82995 0.52745,-3.28223 1.58174,-4.35801 1.05368,-1.07512 2.39496,-1.61334 4.02504,-1.61334 2.36393,0 4.05725,0.93321 5.07874,2.79772 z"
             inkscape:connector-curvature="0"
             style="stroke-width:1.06666672" />
        </g>
      </g>
      <path
         d="M 317.11615,79.904683 H 193.13801 c -1.32969,0 -2.41146,1.082293 -2.41146,2.411978 v 42.128649 c 0,0.30052 0.24375,0.54479 0.54427,0.54479 h 127.712 c 0.30052,0 0.54479,-0.24427 0.54479,-0.54479 V 82.316672 c 0,-1.329696 -1.08178,-2.411989 -2.41146,-2.411989 z m -123.97814,1.089589 h 123.97814 c 0.72916,0 1.32188,0.593227 1.32188,1.3224 0,0 0,16.980725 0,29.246358 h -88.612 c -3.24792,5.87239 -9.50521,9.85989 -16.68646,9.85989 -7.18437,0 -13.4401,-3.98385 -16.68645,-9.85989 h -4.63802 c 0,-12.265622 0,-29.246358 0,-29.246358 -2e-5,-0.729173 0.59374,-1.3224 1.32291,-1.3224 z"
         id="path294"
         inkscape:connector-curvature="0"
         style="stroke-width:1.06666672" />
      <g
         enable-background="new    "
         id="g296">
        <path
           d="m 283.31718,120.40885 c 0.0854,0.16615 0.2,0.30053 0.34271,0.40365 0.14271,0.10261 0.30938,0.17917 0.50105,0.22865 0.1927,0.05 0.39167,0.075 0.59687,0.075 0.13854,0 0.2875,-0.0114 0.44688,-0.0349 0.15834,-0.0229 0.3073,-0.0683 0.44688,-0.13438 0.13854,-0.0661 0.25521,-0.15781 0.34688,-0.27396 0.0938,-0.11615 0.13959,-0.26354 0.13959,-0.44323 0,-0.1922 -0.0614,-0.34792 -0.18438,-0.46772 -0.12187,-0.11978 -0.28332,-0.21875 -0.48229,-0.29895 -0.19792,-0.0791 -0.42396,-0.14896 -0.675,-0.20885 -0.25208,-0.06 -0.50729,-0.12604 -0.76562,-0.19948 -0.26562,-0.0661 -0.52396,-0.14739 -0.77604,-0.24376 -0.25104,-0.0958 -0.47709,-0.22083 -0.67604,-0.37344 -0.19896,-0.1526 -0.35937,-0.34323 -0.4823,-0.57239 -0.12187,-0.22916 -0.18334,-0.50625 -0.18334,-0.83125 0,-0.36563 0.0781,-0.6823 0.23334,-0.95104 0.15624,-0.26875 0.36041,-0.49271 0.6125,-0.6724 0.25104,-0.17917 0.53646,-0.31198 0.85521,-0.39844 0.31771,-0.086 0.63646,-0.12916 0.95417,-0.12916 0.37187,0 0.72812,0.0417 1.06979,0.125 0.34063,0.0828 0.64479,0.2177 0.90937,0.40365 0.26562,0.18594 0.47605,0.42343 0.63229,0.7125 0.15521,0.28906 0.23333,0.63958 0.23333,1.05104 h -1.51667 c -0.0135,-0.2125 -0.0583,-0.38855 -0.13333,-0.52761 -0.0761,-0.13958 -0.17709,-0.24896 -0.30208,-0.32916 -0.12604,-0.0791 -0.26979,-0.13594 -0.43125,-0.16875 -0.1625,-0.0333 -0.33854,-0.05 -0.53021,-0.05 -0.125,0 -0.25104,0.0135 -0.37604,0.0396 -0.12604,0.0271 -0.23959,0.0734 -0.34167,0.13958 -0.10315,0.0667 -0.1875,0.14949 -0.25312,0.24896 -0.0656,0.1 -0.099,0.22604 -0.099,0.37865 0,0.13958 0.026,0.25261 0.0792,0.33854 0.0531,0.0865 0.15834,0.16614 0.31355,0.23906 0.15521,0.073 0.37084,0.14636 0.64583,0.21927 0.275,0.073 0.63438,0.16615 1.07917,0.27865 0.13229,0.0266 0.31563,0.075 0.55104,0.14479 0.23541,0.0698 0.46875,0.18072 0.70105,0.33333 0.23228,0.15312 0.43228,0.35729 0.60208,0.6125 0.16874,0.25574 0.25312,0.58282 0.25312,0.98125 0,0.32553 -0.0636,0.62761 -0.18958,0.90625 -0.12604,0.27917 -0.31355,0.51979 -0.5625,0.72188 -0.24896,0.20312 -0.55729,0.36041 -0.925,0.47344 -0.36875,0.11302 -0.79583,0.16927 -1.27917,0.16927 -0.39167,0 -0.77187,-0.0484 -1.14063,-0.14479 -0.36771,-0.0963 -0.69375,-0.24792 -0.97604,-0.45417 -0.28125,-0.20625 -0.50521,-0.46927 -0.67187,-0.78802 -0.16562,-0.31927 -0.24479,-0.6974 -0.23854,-1.13593 h 1.51667 c -3e-5,0.23906 0.0427,0.44166 0.12913,0.60728 z"
           id="path298"
           style="fill:#ffffff;stroke-width:1.06666672"
           inkscape:connector-curvature="0" />
        <path
           d="m 292.12448,115.05781 2.65937,7.10833 h -1.62396 l -0.5375,-1.58333 h -2.65937 l -0.55729,1.58333 h -1.57292 l 2.68854,-7.10833 z m 0.0896,4.35834 -0.89583,-2.60625 h -0.0198 l -0.92708,2.60625 z"
           id="path300"
           style="fill:#ffffff;stroke-width:1.06666672"
           inkscape:connector-curvature="0" />
      </g>
      <g
         enable-background="new    "
         id="g302">
        <path
           d="m 255.12342,115.05781 c 0.33854,0 0.64792,0.0302 0.92709,0.0896 0.27916,0.0598 0.51875,0.15782 0.71875,0.29375 0.19895,0.13594 0.35416,0.31667 0.46354,0.54219 0.10938,0.22551 0.16459,0.50417 0.16459,0.83594 0,0.35833 -0.0813,0.65624 -0.24479,0.89531 -0.1625,0.23906 -0.40417,0.43438 -0.72291,0.58698 0.43958,0.12604 0.76771,0.34688 0.98437,0.66249 0.21666,0.31562 0.325,0.69583 0.325,1.14063 0,0.35834 -0.0698,0.66875 -0.20937,0.93126 -0.13959,0.26198 -0.32813,0.47604 -0.56355,0.64218 -0.23645,0.16615 -0.50625,0.28907 -0.80833,0.36823 -0.30312,0.0802 -0.61354,0.11978 -0.93333,0.11978 h -3.45209 v -7.10833 h 3.35103 z m -0.2,2.875 c 0.27917,0 0.50833,-0.0661 0.68855,-0.19844 0.17917,-0.13281 0.26874,-0.34739 0.26874,-0.64531 0,-0.16563 -0.0302,-0.30156 -0.0896,-0.4073 -0.0604,-0.10624 -0.13958,-0.18854 -0.23958,-0.24844 -0.1,-0.0594 -0.21458,-0.10101 -0.34375,-0.12395 -0.13021,-0.0235 -0.26459,-0.0349 -0.40417,-0.0349 h -1.46459 v 1.65833 z m 0.0916,3.01667 c 0.15312,0 0.29896,-0.0146 0.43854,-0.0448 0.13958,-0.0297 0.26354,-0.0797 0.36979,-0.14896 0.10624,-0.0698 0.19063,-0.16458 0.25417,-0.28385 0.0636,-0.11926 0.0948,-0.27187 0.0948,-0.45781 0,-0.36459 -0.10314,-0.625 -0.30937,-0.78073 -0.20625,-0.15572 -0.47917,-0.23385 -0.81771,-0.23385 h -1.70625 v 1.94999 z"
           id="path304"
           style="fill:#ffffff;stroke-width:1.06666672"
           inkscape:connector-curvature="0" />
        <path
           d="m 258.01508,115.05781 h 1.75312 l 1.66459,2.8073 1.65416,-2.8073 h 1.74271 l -2.63853,4.38022 v 2.72812 h -1.56667 v -2.76771 z"
           id="path306"
           style="fill:#ffffff;stroke-width:1.06666672"
           inkscape:connector-curvature="0" />
      </g>
      <g
         id="g6316_1_"
         transform="matrix(0.624995,0,0,0.624995,417.31136,188.72875)">
        <path
           id="path6318_1_"
           cx="475.97119"
           ry="29.209877"
           cy="252.08646"
           type="arc"
           rx="29.209877"
           d="m -186.67552,-148.38965 c 0.006,10.03925 -8.12507,18.18431 -18.16514,18.19179 -10.03841,0.007 -18.18347,-8.12506 -18.1918,-18.16511 0,-0.009 0,-0.0183 0,-0.0267 -0.006,-10.04004 8.12672,-18.18347 18.16514,-18.1918 10.04008,-0.007 18.18512,8.12591 18.1918,18.16517 0,0.01 0,0.0175 0,0.0267 z"
           style="fill:#ffffff;stroke-width:1.06666672"
           inkscape:connector-curvature="0" />
        <g
           id="g6320_1_"
           transform="translate(-25.548907,-95.711595)">
          <path
             id="path6322_1_"
             d="m -179.43509,-72.592384 c -5.51674,0 -10.18509,1.925003 -14.00678,5.774219 -3.92171,3.983402 -5.88174,8.696746 -5.88174,14.140106 0,5.44336 1.96003,10.124288 5.88174,14.040107 3.92002,3.916736 8.59004,5.875061 14.00678,5.875061 5.48337,0 10.23506,-1.974997 14.25843,-5.925066 3.78672,-3.749995 5.68171,-8.414198 5.68171,-13.990102 0,-5.575061 -1.92832,-10.290101 -5.78338,-14.140106 -3.855,-3.849216 -8.57339,-5.774219 -14.15676,-5.774219 z m 0.05,3.584181 c 4.52002,0 8.3584,1.592512 11.51677,4.779232 3.18834,3.153387 4.78337,7.003382 4.78337,11.550912 0,4.580075 -1.56002,8.380928 -4.68505,11.40176 -3.29001,3.252544 -7.16172,4.87839 -11.61508,4.87839 -4.45338,0 -8.29173,-1.610027 -11.5151,-4.828384 -3.22334,-3.220832 -4.83503,-7.036715 -4.83503,-11.451755 0,-4.414197 1.62835,-8.265035 4.88502,-11.550912 3.12336,-3.186731 6.94505,-4.779243 11.4651,-4.779243 z"
             inkscape:connector-curvature="0"
             style="stroke-width:1.06666672" />
          <path
             id="path6324_1_"
             d="m -188.26185,-55.488928 c 0.79336,-5.010869 4.32172,-7.689195 8.74176,-7.689195 6.35837,0 10.23174,4.613344 10.23174,10.76511 0,6.002538 -4.12172,10.665888 -10.33174,10.665888 -4.27171,0 -8.09508,-2.629163 -8.79176,-7.787563 h 5.01674 c 0.14999,2.678389 1.88834,3.620896 4.37168,3.620896 2.83004,0 4.67004,-2.629227 4.67004,-6.648437 0,-4.215819 -1.59,-6.448374 -4.57171,-6.448374 -2.18502,0 -4.07168,0.794208 -4.47001,3.521675 l 1.45998,-0.0075 -3.95003,3.948374 -3.94838,-3.948374 z"
             inkscape:connector-curvature="0"
             style="stroke-width:1.06666672" />
        </g>
      </g>
      <g
         id="g313">
        <circle
           cx="258.73306"
           cy="96.239586"
           r="11.526827"
           id="circle315"
           style="fill:#ffffff;stroke-width:1.06666672" />
        <g
           id="g317">
          <path
             d="m 262.06927,92.904171 c 0,-0.444267 -0.36042,-0.803648 -0.80417,-0.803648 h -5.09063 c -0.44375,0 -0.80417,0.35937 -0.80417,0.803648 v 5.091146 h 1.41979 v 6.029163 h 3.85834 v -6.029163 h 1.42083 v -5.091146 z"
             id="path319"
             inkscape:connector-curvature="0"
             style="stroke-width:1.06666672" />
          <circle
             cx="258.71979"
             cy="89.688545"
             r="1.7411414"
             id="circle321"
             style="stroke-width:1.06666672" />
        </g>
        <path
           d="m 258.70365,83.539584 c -3.44688,0 -6.36615,1.202603 -8.75469,3.609376 -2.45104,2.488544 -3.67604,5.434891 -3.67604,8.836459 0,3.401568 1.225,6.327601 3.67604,8.775521 2.45104,2.44739 5.36979,3.67135 8.75469,3.67135 3.42708,0 6.39792,-1.23386 8.91042,-3.70313 2.36875,-2.34323 3.55208,-5.258333 3.55208,-8.743752 0,-3.485419 -1.20417,-6.430731 -3.61354,-8.836459 -2.40938,-2.406762 -5.35938,-3.609365 -8.84896,-3.609365 z m 0.0312,2.239584 c 2.825,0 5.22396,0.995829 7.19688,2.987499 1.99479,1.970314 2.99167,4.377088 2.99167,7.218752 0,2.862496 -0.97605,5.238541 -2.92917,7.126041 -2.05624,2.03281 -4.47604,3.04896 -7.25937,3.04896 -2.78333,0 -5.18229,-1.00573 -7.19635,-3.01823 -2.01563,-2.01198 -3.0224,-4.397401 -3.0224,-7.156771 0,-2.758859 1.01771,-5.16511 3.05312,-7.218752 1.95261,-1.99167 4.34166,-2.987499 7.16562,-2.987499 z"
           id="path323"
           style="clip-rule:evenodd;fill-rule:evenodd;stroke-width:1.06666672"
           inkscape:connector-curvature="0" />
      </g>
    </g>
  </g>
</svg>
